<svg width="50" height="28" viewBox="0 0 50 28" fill="none" xmlns="http://www.w3.org/2000/svg">
<path d="M36.5063 20.9189C35.3583 20.9189 34.4244 19.99 34.4244 18.8489C34.4244 17.7078 35.3583 16.7796 36.5063 16.7796C37.6545 16.7796 38.5884 17.7076 38.5884 18.8489C38.5884 19.9902 37.6545 20.9189 36.5063 20.9189ZM13.4937 20.9189C12.3457 20.9189 11.4118 19.99 11.4118 18.8489C11.4118 17.7078 12.3455 16.7796 13.4937 16.7796C14.6417 16.7796 15.5756 17.7076 15.5756 18.8489C15.5756 19.9902 14.6419 20.9189 13.4937 20.9189ZM37.2531 8.4533L41.4141 1.29022C41.5287 1.09253 41.5596 0.857757 41.5002 0.637409C41.4408 0.41706 41.2959 0.229134 41.0973 0.114864C40.8984 0.0010682 40.6622 -0.0296804 40.4405 0.0293617C40.2188 0.0884038 40.0298 0.232416 39.9148 0.429817L35.7017 7.68343C32.4796 6.22211 28.8612 5.40792 25 5.40792C21.1388 5.40792 17.5204 6.22211 14.2985 7.68343L10.0852 0.429817C9.97025 0.232416 9.78118 0.0884038 9.5595 0.0293617C9.33782 -0.0296804 9.10164 0.0010682 8.90274 0.114864C8.70398 0.229026 8.55896 0.416955 8.49954 0.637348C8.44012 0.857741 8.47117 1.09257 8.58587 1.29022L12.7469 8.4533C5.60177 12.3159 0.714917 19.5057 0 28H50C49.2845 19.5059 44.3977 12.3159 37.2531 8.45311" fill="white"/>
</svg>
