<svg width="50" height="32" viewBox="0 0 50 32" fill="none" xmlns="http://www.w3.org/2000/svg">
<path d="M1.74742 2.60441C1.74742 3.15773 1.41242 3.56706 0.837717 3.56706C0.359136 3.56706 0 3.15773 0 2.60441C0 2.07455 0.382864 1.64136 0.885575 1.64136C1.41242 1.64136 1.74742 2.07455 1.74742 2.60441ZM0.422679 31.5385V9.40565H1.32474V31.5385H0.422679ZM31.3281 15.7688C31.3281 26.9275 25.1689 32 18.427 32C11.5398 32 5.96255 26.5133 5.96255 16.2303C5.96255 5.67195 11.7341 8.79552e-08 18.912 8.79552e-08C25.9443 -0.000808861 31.3281 5.57851 31.3281 15.7688ZM6.87668 15.9994C6.87668 24.4602 10.9539 31.0329 18.4696 31.0329C26.0376 31.0329 30.3782 24.258 30.3782 15.9031C30.3782 8.15542 26.9002 1.0848 18.9639 1.0848C11.0275 1.0848 6.87668 7.74205 6.87668 15.9994ZM34.6388 29.1404C36.1521 30.1548 38.7642 31.1344 41.0107 31.1344C45.2745 31.1344 49.0666 28.1344 49.0666 23.7188C49.0666 19.6211 46.5405 17.483 42.2518 15.6463C38.4135 14.0025 34.9625 12.2184 34.9625 7.83791C34.9625 3.27341 38.5382 0.0448968 43.398 0.0448968C46.0113 0.0448968 47.9827 0.782658 48.8997 1.4282L48.5353 2.22421C47.7559 1.67129 45.6493 0.966694 43.3578 0.966694C38.2217 0.966694 35.9844 4.86987 35.9844 7.74326C35.9844 11.712 39.0433 13.039 42.9862 14.9296C47.5705 17.1885 50 19.1806 50 23.5153C50 28.1725 46.6994 31.9527 40.831 31.9527C38.4007 31.9527 35.6044 31.1231 34.229 30.0622L34.6388 29.1404Z" fill="white"/>
</svg>
